<svg height="260.032" viewBox="0 0 1300 260.032" width="1300" xmlns="http://www.w3.org/2000/svg"><path d="m52.1 288.3a78.755 78.755 0 0 0 1.653-16.527q0-31.122-19.97-51.92t-49.993-20.8q-32.227 0-52.747 20.8t-20.52 51.92q0 31.4 20.8 52.059t55.5 20.658q39.664 0 60.046-28.37l-33.056-19.005q-9.645 10.471-26.442 10.467-25.894 0-33.053-19.281h97.782zm-68.585-52.609q23.137 0 29.2 21.76h-59.22q6.055-21.756 30.023-21.76zm141.848-19.831v-12.946h-41.316v137.721h41.316v-75.2q0-14.048 6.886-21.209t18.73-7.161q10.465 0 17.215 6.473t6.749 18.592v78.5h41.316v-84.556q0-26.714-14.736-41.867t-36.772-15.149q-27 0-39.388 16.8zm227.237 1.1q-14.325-17.9-40.214-17.9-28.921 0-48.34 20.52t-19.419 49.44q0 28.922 19.419 49.442t48.34 20.52q25.887 0 40.214-17.9v12.67q0 14.319-8.263 21.9t-22.861 7.575q-22.041 0-31.4-17.353l-35.256 20.383q18.727 33.324 65.279 33.328 30.3 0 51.508-16.664t21.209-49.166v-130.841h-40.216v14.048zm-66.656 52.06q0-14.319 9.365-23.137t23.963-8.814q14.6 0 23.963 8.814t9.365 23.137q0 14.325-9.365 23.137t-23.963 8.814q-14.6 0-23.963-8.814t-9.365-23.137zm185.368 71.615v-201.072h-41.312v201.072h41.316zm82.631-174.63a24.923 24.923 0 1 0 -7.3 17.49 23.881 23.881 0 0 0 7.3-17.49zm-4.132 174.63v-137.721h-41.311v137.721h41.316zm86.489-105.219q11.839 0 18.455 12.12l35.256-19.006a58.129 58.129 0 0 0 -22.586-21.9 64.529 64.529 0 0 0 -31.125-7.575q-22.866 0-38.424 11.844t-15.561 33.331q0 13.221 7.023 22.311a42.41 42.41 0 0 0 16.94 13.359 140.78 140.78 0 0 0 19.832 6.886 157.553 157.553 0 0 1 16.939 5.371q7.024 2.757 7.024 6.886 0 8.541-14.874 8.539-17.907 0-23.412-16.251l-35.808 20.382q15.7 32.782 59.22 32.778 24.236 0 40.766-11.431t16.526-33.741q0-14.319-7.024-23.826a40.141 40.141 0 0 0 -16.939-13.634 153.608 153.608 0 0 0 -19.828-6.749q-9.916-2.615-16.94-5.233t-7.023-6.748q0-7.708 11.568-7.713zm125.05-19.556v-68.034h-41.315v192.809h41.316v-75.2q0-14.048 6.886-21.209t18.73-7.161q10.464 0 17.215 6.473t6.748 18.592v78.5h41.317v-84.556q0-26.714-14.737-41.867t-36.771-15.149q-27 0-39.388 16.8zm252.55 78.521-26.463-72.956h-39.337l47.446 113.726q-4.057 10.963-10.729 15.378t-19.074 4.411v33.379q25.269 1.19 41.609-10.967 16.32-12.16 26.34-40.293l40.77-115.634h-38.15zm185.49.954a67.73 67.73 0 0 0 1.44-14.305q0-26.94-17.29-44.942t-43.27-18q-27.9 0-45.66 18t-17.76 44.942q0 27.18 18 45.061t48.04 17.882q34.335 0 51.97-24.558l-28.61-16.45q-8.34 9.063-22.88 9.059-22.425 0-28.61-16.689zm-59.36-45.535q20.025 0 25.27 18.835h-51.26q5.235-18.831 25.99-18.835zm120.16-.239q10.245 0 15.98 10.491l30.51-16.451a50.3 50.3 0 0 0 -19.55-18.954 55.847 55.847 0 0 0 -26.94-6.557q-19.785 0-33.26 10.252t-13.47 28.849q0 11.444 6.08 19.312a36.691 36.691 0 0 0 14.66 11.563 122.389 122.389 0 0 0 17.17 5.961 136.115 136.115 0 0 1 14.66 4.649q6.09 2.387 6.08 5.96 0 7.394-12.87 7.391-15.51 0-20.27-14.066l-30.99 17.639q13.59 28.375 51.26 28.372 20.97 0 35.28-9.9t14.31-29.206q0-12.395-6.08-20.623a34.732 34.732 0 0 0 -14.66-11.8 133.468 133.468 0 0 0 -17.17-5.841q-8.58-2.264-14.66-4.53c-4.06-1.509-6.08-3.458-6.08-5.842q0-6.672 10.01-6.676z" fill-rule="evenodd" opacity=".06" transform="translate(0 -139.562)"/></svg>