<svg xmlns="http://www.w3.org/2000/svg" viewBox="0 0 1398.31 260.02"><defs><style>.cls-1{opacity:0.06;isolation:isolate;}</style></defs><title>Asset 1</title><g id="Layer_2" data-name="Layer 2"><g id="Layer_1-2" data-name="Layer 1"><path class="cls-1" d="M141.58,148.74a79.17,79.17,0,0,0,1.65-16.53q0-31.13-20-51.92t-50-20.8q-32.23,0-52.75,20.8T0,132.21q0,31.39,20.8,52.06t55.5,20.66q39.66,0,60.05-28.37l-33.06-19Q93.65,168,76.85,168q-25.89,0-33-19.28ZM73,96.13q23.15,0,29.2,21.76H43Q49,96.13,73,96.13ZM214.84,76.3V63.35H173.52V201.07h41.32v-75.2q0-14,6.89-21.21t18.73-7.16q10.46,0,17.21,6.48t6.75,18.59v78.5h41.32V116.51q0-26.72-14.74-41.87T254.23,59.5q-27,0-39.39,16.8Zm227.24,1.1q-14.32-17.91-40.22-17.9-28.92,0-48.34,20.52T334.1,129.46q0,28.92,19.42,49.44t48.34,20.52q25.89,0,40.22-17.9v12.67q0,14.33-8.27,21.9T411,223.66q-22,0-31.4-17.35L344.3,226.69Q363,260,409.58,260q30.3,0,51.5-16.66t21.21-49.17V63.35H442.08V77.4Zm-66.66,52.06q0-14.33,9.37-23.14t24-8.81q14.6,0,24,8.81t9.37,23.14q0,14.32-9.37,23.13t-24,8.82q-14.6,0-24-8.82T375.42,129.46Zm185.37,71.61V0H519.48V201.07ZM643.42,26.44a24.93,24.93,0,1,0-7.3,17.49A23.89,23.89,0,0,0,643.42,26.44Zm-4.13,174.63V63.35H598V201.07ZM725.78,95.85q11.84,0,18.45,12.12l35.26-19a58.06,58.06,0,0,0-22.59-21.9,64.55,64.55,0,0,0-31.12-7.58q-22.87,0-38.43,11.85t-15.56,33.33q0,13.22,7,22.31a42.37,42.37,0,0,0,16.94,13.36,141.32,141.32,0,0,0,19.83,6.88,159.38,159.38,0,0,1,16.94,5.37q7,2.76,7,6.89,0,8.53-14.87,8.54-17.91,0-23.42-16.25l-35.8,20.38q15.69,32.78,59.22,32.78,24.23,0,40.76-11.43T782,159.76q0-14.32-7-23.83A40,40,0,0,0,758,122.3a152.19,152.19,0,0,0-19.82-6.75q-9.91-2.62-16.94-5.24t-7-6.74q0-7.71,11.57-7.72ZM850.83,76.3v-68H809.51V201.07h41.32v-75.2q0-14,6.88-21.21t18.73-7.16q10.47,0,17.22,6.48t6.75,18.59v78.5h41.31V116.51q0-26.72-14.73-41.87T890.22,59.5q-27,0-39.39,16.8Zm252.55,78.52-26.47-73h-39.33L1085,195.59q-4.05,11-10.73,15.38t-19.07,4.41v33.38q25.27,1.19,41.61-11t26.34-40.29l40.77-115.64h-38.15Zm185.49,1a68,68,0,0,0,1.44-14.3q0-26.94-17.29-44.94t-43.27-18q-27.9,0-45.66,18t-17.76,44.94q0,27.18,18,45.06t48,17.88q34.34,0,52-24.56l-28.61-16.45q-8.34,9.06-22.88,9.06-22.42,0-28.61-16.69Zm-59.36-45.53q20,0,25.27,18.83h-51.26Q1208.76,110.25,1229.51,110.24Zm120.16-.24q10.24,0,16,10.49L1396.16,104a50.32,50.32,0,0,0-19.55-19,55.84,55.84,0,0,0-26.94-6.55q-19.79,0-33.26,10.25t-13.47,28.85q0,11.45,6.08,19.31a36.63,36.63,0,0,0,14.66,11.56,120.63,120.63,0,0,0,17.17,6,139.38,139.38,0,0,1,14.66,4.65q6.09,2.38,6.08,6,0,7.4-12.87,7.39-15.51,0-20.27-14.06l-31,17.64q13.59,28.36,51.26,28.37,21,0,35.28-9.9t14.31-29.21q0-12.39-6.08-20.62a34.73,34.73,0,0,0-14.66-11.8A133.51,133.51,0,0,0,1360.4,127q-8.58-2.27-14.66-4.53c-4.06-1.51-6.08-3.46-6.08-5.84q0-6.67,10-6.68Z"/></g></g></svg>