<svg xmlns="http://www.w3.org/2000/svg" xmlns:xlink="http://www.w3.org/1999/xlink" width="63" height="63" viewBox="0 0 63 63"><defs><path id="j2hna" d="M95.32 4849.27a20 20 0 0 1 19.98 20.03 20 20 0 0 1-19.98 20.03 20 20 0 0 1-19.98-20.03 20 20 0 0 1 19.98-20.03zm-30.88 20.03a30.92 30.92 0 0 0 30.89 30.95 30.92 30.92 0 0 0 30.89-30.95 30.92 30.92 0 0 0-30.9-30.96 30.92 30.92 0 0 0-30.88 30.96z"/></defs><g><g transform="translate(-64 -4838)"><use fill="#2429ff" xlink:href="#j2hna"/></g></g></svg>