<svg viewBox="0 0 1398.31 260.02" xmlns="http://www.w3.org/2000/svg"><path d="m141.58 148.74a79.17 79.17 0 0 0 1.65-16.53q0-31.13-20-51.92t-50-20.8q-32.23 0-52.75 20.8t-20.48 51.92q0 31.39 20.8 52.06t55.5 20.66q39.66 0 60.05-28.37l-33.06-19q-9.64 10.44-26.44 10.44-25.89 0-33-19.28zm-68.58-52.61q23.15 0 29.2 21.76h-59.2q6-21.76 30-21.76zm141.84-19.83v-12.95h-41.32v137.72h41.32v-75.2q0-14 6.89-21.21t18.73-7.16q10.46 0 17.21 6.48t6.75 18.59v78.5h41.32v-84.56q0-26.72-14.74-41.87t-36.77-15.14q-27 0-39.39 16.8zm227.24 1.1q-14.32-17.91-40.22-17.9-28.92 0-48.34 20.52t-19.42 49.44q0 28.92 19.42 49.44t48.34 20.52q25.89 0 40.22-17.9v12.67q0 14.33-8.27 21.9t-22.81 7.57q-22 0-31.4-17.35l-35.3 20.38q18.7 33.31 65.28 33.31 30.3 0 51.5-16.66t21.21-49.17v-130.82h-40.21zm-66.66 52.06q0-14.33 9.37-23.14t24-8.81q14.6 0 24 8.81t9.37 23.14q0 14.32-9.37 23.13t-24 8.82q-14.6 0-24-8.82t-9.37-23.13zm185.37 71.61v-201.07h-41.31v201.07zm82.63-174.63a24.93 24.93 0 1 0 -7.3 17.49 23.89 23.89 0 0 0 7.3-17.49zm-4.13 174.63v-137.72h-41.29v137.72zm86.49-105.22q11.84 0 18.45 12.12l35.26-19a58.06 58.06 0 0 0 -22.59-21.9 64.55 64.55 0 0 0 -31.12-7.58q-22.87 0-38.43 11.85t-15.56 33.33q0 13.22 7 22.31a42.37 42.37 0 0 0 16.94 13.36 141.32 141.32 0 0 0 19.83 6.88 159.38 159.38 0 0 1 16.94 5.37q7 2.76 7 6.89 0 8.53-14.87 8.54-17.91 0-23.42-16.25l-35.8 20.38q15.69 32.78 59.22 32.78 24.23 0 40.76-11.43t16.61-33.74q0-14.32-7-23.83a40 40 0 0 0 -17-13.63 152.19 152.19 0 0 0 -19.82-6.75q-9.91-2.62-16.94-5.24t-7-6.74q0-7.71 11.57-7.72zm125.05-19.55v-68h-41.32v192.77h41.32v-75.2q0-14 6.88-21.21t18.73-7.16q10.47 0 17.22 6.48t6.75 18.59v78.5h41.31v-84.56q0-26.72-14.73-41.87t-36.77-15.14q-27 0-39.39 16.8zm252.55 78.52-26.47-73h-39.33l47.42 113.77q-4.05 11-10.73 15.38t-19.07 4.41v33.38q25.27 1.19 41.61-11t26.34-40.29l40.77-115.64h-38.15zm185.49 1a68 68 0 0 0 1.44-14.3q0-26.94-17.29-44.94t-43.27-18q-27.9 0-45.66 18t-17.76 44.94q0 27.18 18 45.06t48 17.88q34.34 0 52-24.56l-28.61-16.45q-8.34 9.06-22.88 9.06-22.42 0-28.61-16.69zm-59.36-45.53q20 0 25.27 18.83h-51.26q5.24-18.87 25.99-18.88zm120.16-.24q10.24 0 16 10.49l30.49-16.54a50.32 50.32 0 0 0 -19.55-19 55.84 55.84 0 0 0 -26.94-6.55q-19.79 0-33.26 10.25t-13.47 28.85q0 11.45 6.08 19.31a36.63 36.63 0 0 0 14.66 11.56 120.63 120.63 0 0 0 17.17 6 139.38 139.38 0 0 1 14.66 4.65q6.09 2.38 6.08 6 0 7.4-12.87 7.39-15.51 0-20.27-14.06l-31 17.64q13.59 28.36 51.26 28.37 21 0 35.28-9.9t14.31-29.21q0-12.39-6.08-20.62a34.73 34.73 0 0 0 -14.66-11.8 133.51 133.51 0 0 0 -17.16-5.88q-8.58-2.27-14.66-4.53c-4.06-1.51-6.08-3.46-6.08-5.84q0-6.67 10-6.68z" opacity=".06"/></svg>