<svg viewBox="0 0 58.35 22.17" xmlns="http://www.w3.org/2000/svg"><path d="m0 16.89h4.92v4.92h-4.92z"/><g fill="#e4002b"><path d="m12.08 21.81h5.25v-8.81l7.08-12.64h-6l-2.41 5.16c-.65 1.48-1.25 3.09-1.25 3.09h-.06s-.6-1.61-1.29-3.09l-2.4-5.16h-6l7.08 12.64z"/><path d="m26.86 21.81h13.86v-4.5h-8.61v-4.05h6.54v-4.5h-6.54v-3.9h8.19v-4.5h-13.44z"/><path d="m43 19.11a11.11 11.11 0 0 0 7.77 3.06c5 0 7.62-3.09 7.62-6.69 0-6.78-9.48-6.06-9.48-9.12 0-.87.69-1.53 2.28-1.53a7.74 7.74 0 0 1 4.74 1.89l2.22-4.29a10.14 10.14 0 0 0 -6.76-2.43c-4.5 0-7.77 2.61-7.77 6.57 0 6.72 9.48 6.24 9.48 9.27 0 .84-.75 1.5-2.22 1.5a8.62 8.62 0 0 1 -5.16-2.22z"/></g></svg>