<svg viewBox="0 0 160.93 91.79" xmlns="http://www.w3.org/2000/svg"><path d="m78.76 91.38h9.62s2.9-.32 4.39-1.92a6.35 6.35 0 0 0 1.32-4.22s-.19-12.9 5.8-14.81 13.49 12.47 21.52 18c6.08 4.17 10.69 3.26 10.69 3.26l21.49-.3s11.24-.69 5.91-9.53c-.44-.72-3.11-6.54-16-18.49-13.5-12.51-11.67-10.48 4.56-32.12 9.94-13.18 13.82-21.25 12.63-24.7-1.18-3.28-8.45-2.42-8.45-2.42l-24.24.15a5.61 5.61 0 0 0 -3.12.55 6.73 6.73 0 0 0 -2.13 2.6 141.65 141.65 0 0 1 -8.91 18.9c-10.76 18.29-15.07 19.22-16.84 18.12-4.1-2.65-3.07-10.64-3.07-16.31 0-17.73 2.69-25.12-5.24-27-2.62-.63-4.56-1.05-11.28-1.14-8.63-.07-15.94 0-20.08 2.07-2.75 1.35-4.88 4.35-3.58 4.52 1.6.21 5.22 1 7.14 3.59 2.48 3.37 2.39 11 2.39 11s1.42 20.82-3.28 23.41c-3.26 1.78-7.74-1.85-17.34-18.45a153.66 153.66 0 0 1 -8.66-17.9 7.31 7.31 0 0 0 -2-2.7 10.2 10.2 0 0 0 -3.75-1.54l-23 .15s-3.45.14-4.72 1.64c-1.13 1.34-.09 4.1-.09 4.1s18 42.11 38.38 63.34c18.69 19.46 39.91 18.18 39.91 18.18z" transform="translate(0 .02)"/></svg>