<svg enable-background="new 0 0 91 49" viewBox="0 0 91 49" xmlns="http://www.w3.org/2000/svg"><g fill="#2429ff"><path d="m6.5 9c-1.6-1.6-3.7-3.2-4.7-3.6-1.1-.3-1.8-1.5-1.8-3 0-3.7 5.7-3.4 9.5.6 1.6 1.7 3.4 3 4 3 .7 0 2.4-1.3 3.8-3 3.8-4.3 9.8-4.3 13.5 0 3.3 3.7 4.1 3.7 7.7 0 4.1-4.2 9.9-4.2 14 0 1.6 1.6 3.4 3 4 3s2.2-1.3 3.7-3c2.1-2.4 3.4-3 6.6-3s4.6.6 6.9 3c1.5 1.6 3.3 3 3.9 3 .5 0 2.3-1.3 3.9-3 2.1-2.2 3.8-3 6.2-3 2.9 0 3.3.3 3.3 2.5 0 1.4-.4 2.5-1 2.5-.5 0-2.7 1.6-4.9 3.5-5.1 4.7-9.9 4.8-14.3.5-1.6-1.6-3.4-3-4-3-.5 0-2.3 1.4-3.8 3-4.1 4.4-9.4 4.2-14-.5l-3.4-3.5-3.6 3.5c-4.8 4.7-9.9 4.9-14 .5-3.5-3.7-4.5-3.7-8 0-3.9 4.2-9.5 4.2-13.5 0z"/><path d="m6.5 21.2c-1.6-1.6-3.7-3.2-4.7-3.6-1.1-.3-1.8-1.5-1.8-3 0-3.7 5.7-3.4 9.5.6 1.6 1.7 3.4 3 4 3 .7 0 2.4-1.3 3.8-3 3.8-4.3 9.8-4.3 13.5 0 3.3 3.7 4.1 3.7 7.7 0 4.1-4.2 9.9-4.2 14 0 1.6 1.6 3.4 3 4 3s2.2-1.3 3.7-3c2.1-2.4 3.4-3 6.6-3s4.6.6 6.9 3c1.5 1.6 3.3 3 3.9 3 .5 0 2.3-1.3 3.9-3 2.1-2.2 3.8-3 6.2-3 2.9 0 3.3.3 3.3 2.5 0 1.4-.4 2.5-1 2.5-.5 0-2.7 1.6-4.9 3.5-5.1 4.7-9.9 4.8-14.3.5-1.6-1.6-3.4-3-4-3-.5 0-2.3 1.4-3.8 3-4.1 4.4-9.4 4.2-14-.5l-3.4-3.5-3.6 3.5c-4.8 4.7-9.9 4.9-14 .5-3.5-3.7-4.5-3.7-8 0-3.9 4.2-9.5 4.2-13.5 0z"/><path d="m6.5 33.6c-1.6-1.6-3.7-3.2-4.7-3.6-1.1-.3-1.8-1.5-1.8-3 0-3.7 5.7-3.4 9.5.6 1.6 1.7 3.4 3 4 3 .7 0 2.4-1.3 3.8-3 3.8-4.3 9.8-4.3 13.5 0 3.3 3.7 4.1 3.7 7.7 0 4.1-4.2 9.9-4.2 14 0 1.6 1.6 3.4 3 4 3s2.2-1.3 3.7-3c2.1-2.4 3.4-3 6.6-3s4.6.6 6.9 3c1.5 1.6 3.3 3 3.9 3 .5 0 2.3-1.3 3.9-3 2.1-2.2 3.8-3 6.2-3 2.9 0 3.3.3 3.3 2.5 0 1.4-.4 2.5-1 2.5-.5 0-2.7 1.6-4.9 3.5-5.1 4.7-9.9 4.8-14.3.5-1.6-1.6-3.4-3-4-3-.5 0-2.3 1.4-3.8 3-4.1 4.4-9.4 4.2-14-.5l-3.4-3.5-3.6 3.5c-4.8 4.7-9.9 4.9-14 .5-3.5-3.7-4.5-3.7-8 0-3.9 4.2-9.5 4.2-13.5 0z"/><path d="m6.5 46c-1.6-1.6-3.7-3.2-4.7-3.6-1.1-.3-1.8-1.5-1.8-3 0-3.7 5.7-3.4 9.5.6 1.6 1.7 3.4 3 4 3 .7 0 2.4-1.3 3.8-3 3.8-4.3 9.8-4.3 13.5 0 3.3 3.7 4.1 3.7 7.7 0 4.1-4.2 9.9-4.2 14 0 1.6 1.6 3.4 3 4 3s2.2-1.3 3.7-3c2.1-2.4 3.4-3 6.6-3s4.6.6 6.9 3c1.5 1.6 3.3 3 3.9 3 .5 0 2.3-1.3 3.9-3 2.1-2.2 3.8-3 6.2-3 2.9 0 3.3.3 3.3 2.5 0 1.4-.4 2.5-1 2.5-.5 0-2.7 1.6-4.9 3.5-5.1 4.7-9.9 4.8-14.3.5-1.6-1.6-3.4-3-4-3-.5 0-2.3 1.4-3.8 3-4.1 4.4-9.4 4.2-14-.5l-3.4-3.5-3.6 3.5c-4.8 4.7-9.9 4.9-14 .5-3.5-3.7-4.5-3.7-8 0-3.9 4.2-9.5 4.2-13.5 0z"/></g></svg>