<svg xmlns="http://www.w3.org/2000/svg" viewBox="0 0 139.52 19"><defs><style>.cls-1{fill:#2429ff;}</style></defs><title>wave</title><g id="Layer_2" data-name="Layer 2"><g id="Layer_1-2" data-name="Layer 1"><path class="cls-1" d="M10,14.14c-2.46-2.45-5.68-4.9-7.21-5.52C1.07,8.16,0,6.32,0,4c0-5.67,8.74-5.21,14.57.92,2.45,2.61,5.21,4.6,6.13,4.6,1.07,0,3.68-2,5.82-4.6,5.83-6.59,15-6.59,20.7,0,5.06,5.68,6.29,5.68,11.81,0,6.28-6.43,15.18-6.43,21.46,0C83,7.4,85.7,9.54,86.62,9.54s3.38-2,5.68-4.6c3.22-3.68,5.21-4.6,10.12-4.6s7,.92,10.58,4.6c2.3,2.46,5,4.6,6,4.6.77,0,3.53-2,6-4.6,3.22-3.37,5.83-4.6,9.51-4.6,4.45,0,5.06.46,5.06,3.84,0,2.14-.61,3.83-1.53,3.83s-4.14,2.45-7.52,5.37c-7.82,7.2-15.17,7.36-21.92.76-2.45-2.45-5.21-4.6-6.13-4.6-.77,0-3.53,2.15-5.83,4.6-6.29,6.75-14.41,6.44-21.46-.76L69.91,8l-5.52,5.37c-7.36,7.2-15.17,7.51-21.46.76-5.37-5.67-6.9-5.67-12.27,0C24.68,20.58,16.1,20.58,10,14.14Z"/></g></g></svg>