<svg height="12" preserveAspectRatio="xMidYMid meet" viewBox="0 0 910 120" width="91" xmlns="http://www.w3.org/2000/svg"><path d="m65 90c-16-16-37-32-47-36-11-3-18-15-18-30 0-37 57-34 95 6 16 17 34 30 40 30 7 0 24-13 38-30 38-43 98-43 135 0 33 37 41 37 77 0 41-42 99-42 140 0 16 16 34 30 40 30s22-13 37-30c21-24 34-30 66-30s46 6 69 30c15 16 33 30 39 30 5 0 23-13 39-30 21-22 38-30 62-30 29 0 33 3 33 25 0 14-4 25-10 25-5 0-27 16-49 35-51 47-99 48-143 5-16-16-34-30-40-30-5 0-23 14-38 30-41 44-94 42-140-5l-34-35-36 35c-48 47-99 49-140 5-35-37-45-37-80 0-39 42-95 42-135 0z" fill="#2429ff"/></svg>